# xmcd
#
# Track frame offsets:
# 150
# 9307
# 22725
# 43120
# 54025
# 72625
# 84445
# 98785
# 118200
# 133165
# 147137
# 158037
# 176205
# 186702
# 201535
# 213497
# 224760
# 239884
# 251807
# 261447
# 275050
# 285475
#
# Disc length: 3969 seconds
#
#
# Revision: 1
# Processed by: cddbd v1.5.2PL0 Copyright (c) Steve Scherf et al.
# Submitted via: FreeRIP 2.944 
#
DISCID=670f7f16
DTITLE=Various Artist - To nejlepsi z Ceske country
DYEAR=2005
DGENRE=country
TTITLE0=Rangers - Kral silnic
TTITLE1=Karel Zich - Sam se svou kytarou
TTITLE2=Pavel Bobek - Chvile, kdy jsem byl s ni
TTITLE3=Karel Gott - Vitr v zadech
TTITLE4=Greenhorns - Oranzovy express
TTITLE5=Ladislav Vodicka - Ridic ten tvrdy chleba ma
TTITLE6=Vera Martinova - Posledni rallye
TTITLE7=KTO - Frajer Joe
TTITLE8=Pacifik - Dabluv vlak
TTITLE9=Petra Cernocka - Nakladak
TTITLE10=Greenhorns - Casey Jones
TTITLE11=Zelenaci - Divka s vlasem medovym
TTITLE12=Poutnici - Navrat
TTITLE13=Michal Tucny - Ja si jen tak litam
TTITLE14=Pacifik - Oregon
TTITLE15=Hraci - Jena chodec
TTITLE16=Michal Tucny - Indian Banjo
TTITLE17=KTO - Loudavy vlak
TTITLE18=Greenhorns - Sest dni na silnici
TTITLE19=Pavel Bobek - Slama v botach
TTITLE20=Rangers - Vim, vim
TTITLE21=Pavel Bobek - Ved me dal, cesto ma
EXTD=
EXTT0=
EXTT1=
EXTT2=
EXTT3=
EXTT4=
EXTT5=
EXTT6=
EXTT7=
EXTT8=
EXTT9=
EXTT10=
EXTT11=
EXTT12=
EXTT13=
EXTT14=
EXTT15=
EXTT16=
EXTT17=
EXTT18=
EXTT19=
EXTT20=
EXTT21=
PLAYORDER=
